<?xml version="1.0" encoding="UTF-8"?>
<svg xmlns="http://www.w3.org/2000/svg" xmlns:xlink="http://www.w3.org/1999/xlink" width="623.53pt" height="339.85pt" viewBox="0 0 623.53 339.85" version="1.1">
<g id="surface1">
<path style=" stroke:none;fill-rule:evenodd;fill:rgb(96.499634%,92.498779%,15.299988%);fill-opacity:1;" d="M 337.21875 93.835938 C 334.359375 97.394531 330.054688 101.242188 328.738281 105.253906 C 336.28125 103.992188 341.925781 100.828125 346.679688 96.773438 C 346.097656 93.222656 341.324219 93.863281 337.21875 93.835938 M 337.546875 110.476563 C 338.289063 115.492188 340.273438 119.277344 340.480469 124.832031 C 338.832031 127.113281 334.519531 129.398438 331.671875 127.765625 C 328.003906 125.660156 325.609375 115.578125 323.191406 112.757813 C 319.746094 115.066406 316.460938 126.042969 312.097656 127.765625 C 309.703125 128.710938 304.125 128.65625 302.636719 126.136719 C 305.34375 118.722656 310.3125 112.367188 314.707031 105.90625 C 319.273438 99.191406 323.679688 92.148438 329.390625 86.65625 C 340.984375 86.496094 357.386719 87.242188 355.488281 98.402344 C 354.535156 104.003906 343.644531 108.695313 337.546875 110.476563 "/>
<path style=" stroke:none;fill-rule:evenodd;fill:rgb(96.499634%,92.498779%,15.299988%);fill-opacity:1;" d="M 279.144531 91.554688 C 275.046875 96.089844 268.414063 93.546875 263.808594 95.140625 C 261.042969 96.101563 258.464844 100.273438 255.980469 103.296875 C 250.625 109.820313 247.636719 113.96875 242.929688 121.570313 C 239.988281 126.320313 237.140625 135.144531 229.226563 129.726563 C 229.660156 122.894531 234.125 117.695313 237.382813 112.433594 C 240.65625 107.144531 244.089844 101.871094 247.171875 96.445313 C 241.578125 96.804688 233.085938 98.894531 228.902344 95.792969 C 235.796875 89.894531 254.179688 89.878906 267.074219 89.269531 C 271.761719 89.046875 277.390625 88.472656 279.144531 91.554688 "/>
<path style=" stroke:none;fill-rule:evenodd;fill:rgb(96.499634%,92.498779%,15.299988%);fill-opacity:1;" d="M 316.664063 90.574219 C 314.347656 96.683594 305.445313 92.128906 299.699219 93.835938 C 297.523438 94.484375 294.722656 99.320313 293.171875 101.339844 C 291.027344 104.136719 289.199219 106.609375 287.300781 109.171875 C 291.757813 109.605469 298.300781 107.960938 300.351563 110.800781 C 297.621094 114.488281 289.410156 112.691406 284.039063 113.738281 C 281.074219 117.410156 278.257813 121.226563 275.882813 125.484375 C 282 126.488281 292.753906 122.464844 297.414063 126.136719 C 294.714844 130.261719 283.542969 129.15625 276.859375 130.050781 C 274.246094 130.402344 271.726563 131.4375 270.007813 131.355469 C 268.167969 131.265625 262.796875 128.878906 262.503906 126.789063 C 262.234375 124.835938 266.675781 119.5625 268.050781 117.328125 C 273.851563 107.902344 280.417969 96.488281 286.648438 89.269531 L 302.308594 89.269531 C 307.46875 89.269531 313.171875 88.371094 316.664063 90.574219 "/>
<path style=" stroke:none;fill-rule:evenodd;fill:rgb(96.499634%,92.498779%,15.299988%);fill-opacity:1;" d="M 228.574219 92.203125 C 226.300781 97.414063 218.273438 94.644531 213.566406 96.121094 C 211.15625 96.875 207.621094 101.984375 205.734375 104.277344 C 202.90625 107.714844 200.871094 110.671875 198.886719 113.410156 C 194.042969 120.097656 190.570313 126.761719 186.160156 132.335938 C 182.933594 132.40625 179.679688 132.507813 178.65625 130.378906 C 182.550781 117.304688 191.050781 108.839844 196.929688 97.75 C 190.824219 97.714844 182.710938 100.421875 178.65625 96.773438 C 185.585938 91.488281 198.859375 91.464844 210.957031 90.898438 C 216.707031 90.632813 224.363281 89.28125 228.574219 92.203125 "/>
<path style=" stroke:none;fill-rule:evenodd;fill:rgb(96.499634%,92.498779%,15.299988%);fill-opacity:1;" d="M 176.046875 94.160156 C 174.238281 99.207031 165.097656 96.914063 158.753906 97.425781 C 154.316406 102.121094 150.609375 107.550781 146.683594 112.757813 C 150.980469 113.359375 158.023438 111.207031 159.40625 114.71875 C 156.4375 117.945313 148.617188 116.324219 143.421875 117.328125 C 140.460938 121 137.488281 124.664063 135.265625 129.074219 C 141.300781 129.957031 151.441406 126.410156 156.472656 129.398438 C 156.15625 132.964844 151.144531 132.375 147.007813 132.660156 C 143.144531 132.925781 138.539063 133.105469 135.265625 133.640625 C 133.085938 133.996094 131.089844 135.023438 129.390625 134.945313 C 127.535156 134.855469 122.171875 132.507813 121.886719 130.378906 C 121.585938 128.121094 126.148438 122.96875 127.433594 120.914063 C 133.546875 111.15625 139.3125 100.464844 146.03125 92.855469 L 161.691406 92.855469 C 166.851563 92.855469 172.554688 91.960938 176.046875 94.160156 "/>
<path style=" stroke:none;fill-rule:evenodd;fill:rgb(96.499634%,92.498779%,15.299988%);fill-opacity:1;" d="M 92.523438 118.632813 C 89.996094 121.976563 87.285156 125.136719 85.019531 128.746094 C 90.464844 128.617188 95.507813 128.613281 99.703125 127.113281 C 103.5 125.757813 107.921875 123.832031 109.488281 120.261719 C 106.476563 117.078125 98.066406 119.289063 92.523438 118.632813 M 108.511719 99.710938 C 107.074219 101.492188 105.207031 103.074219 103.617188 104.929688 C 102.195313 106.589844 100.535156 108.203125 100.679688 109.496094 C 108.671875 108.511719 115.746094 106.089844 118.953125 100.6875 C 116.851563 98.980469 112.046875 99.976563 108.511719 99.710938 M 113.078125 113.738281 C 116.949219 115.691406 120.8125 120.84375 117.320313 125.808594 C 112.824219 132.207031 92.046875 139.277344 82.410156 133.640625 C 80.050781 136.277344 73.578125 136.714844 71.644531 133.3125 C 77 121.378906 84.316406 111.402344 91.871094 101.664063 C 90.367188 100.652344 88.265625 100.867188 88.28125 99.054688 C 88.3125 96.183594 92.699219 97.515625 95.460938 96.445313 C 98 95.464844 100.003906 90.917969 103.289063 94.816406 C 112.878906 95.261719 127.753906 92.664063 128.414063 101.015625 C 128.988281 108.316406 119.738281 111.777344 113.078125 113.738281 "/>
<path style=" stroke:none;fill-rule:evenodd;fill:rgb(92.89856%,10.998535%,23.899841%);fill-opacity:1;" d="M 236.730469 214.554688 C 235.617188 212.121094 230.535156 211.285156 228.246094 211.289063 C 220.601563 211.296875 213.9375 216.882813 208.019531 221.40625 C 197.761719 229.242188 190.078125 236.953125 183.550781 249.136719 C 181.429688 253.09375 175.558594 266.242188 180.289063 268.710938 C 182.761719 270.003906 186.648438 267.503906 189.097656 266.101563 C 207.523438 255.542969 219.460938 238.75 233.140625 224.664063 C 234.308594 224.527344 234.882813 223.796875 236.40625 224.015625 C 235.019531 220.671875 238.382813 218.15625 236.730469 214.554688 M 406.058594 197.261719 C 415.703125 189.789063 423.816406 179.21875 432.160156 168.222656 C 440.140625 157.707031 450.222656 145.179688 453.039063 130.378906 C 453.023438 130.179688 452.992188 129.992188 452.714844 130.050781 C 434.566406 149.859375 418.382813 171.628906 406.058594 197.261719 M 421.71875 233.148438 C 420.273438 236.421875 416.535156 239.789063 412.910156 242.9375 C 407.269531 247.839844 398.257813 254.5625 386.8125 252.074219 C 379.953125 250.582031 376.191406 244.976563 375.0625 237.066406 C 372.179688 238.578125 369.808594 241.664063 366.582031 244.242188 C 358.464844 250.730469 346.324219 258.574219 333.304688 259.578125 C 323.410156 260.339844 317.109375 256.457031 315.6875 247.503906 C 309.957031 254.246094 299.054688 264.710938 285.667969 264.796875 C 276.140625 264.859375 270.863281 258.554688 268.378906 250.441406 C 259.828125 257.515625 246.011719 269.824219 230.207031 271.976563 C 221.523438 273.15625 212.449219 269.136719 210.304688 261.207031 C 200.917969 267.707031 193.101563 277.53125 181.265625 280.457031 C 168.199219 283.6875 155.746094 277.609375 157.125 262.839844 C 157.953125 253.9375 164.84375 244.605469 170.828125 237.71875 C 182.5625 224.210938 195.785156 210.992188 215.851563 205.09375 C 226.757813 201.882813 249.691406 199.871094 251.738281 212.921875 C 252.859375 220.0625 248.148438 223.984375 242.277344 224.992188 C 253.566406 233.949219 229.394531 245.304688 231.183594 257.292969 C 232.058594 263.152344 240.804688 259.542969 244.234375 257.617188 C 255.648438 251.210938 264.390625 241.351563 272.621094 232.171875 C 274.515625 224.273438 279.613281 215.269531 285.015625 208.679688 C 286.660156 206.675781 289.433594 203.613281 291.214844 203.132813 C 296.433594 201.730469 302.1875 204.144531 305.246094 206.722656 C 300.675781 217.109375 289.292969 227.890625 287.628906 241.632813 C 287.050781 246.386719 287.699219 252.535156 292.519531 253.050781 C 298.300781 253.667969 303.976563 246.886719 307.203125 243.589844 C 319.382813 231.148438 327.140625 215.109375 337.871094 201.828125 C 342.992188 201.253906 351.777344 202.914063 352.554688 206.070313 C 353.066406 208.160156 349.167969 213.859375 347.660156 216.511719 C 345.5625 220.199219 343.730469 223.257813 342.113281 226.300781 C 338.09375 233.855469 333.921875 241.042969 336.238281 249.136719 C 346.785156 251.117188 353.867188 243.917969 360.382813 238.367188 C 366.628906 233.054688 374.6875 227.199219 378.328125 220.101563 C 380.996094 214.898438 382.207031 208.875 384.527344 203.460938 C 395.46875 177.90625 411.640625 154.425781 428.570313 133.640625 C 434.800781 125.992188 443.238281 115.488281 452.390625 112.105469 C 461.519531 108.734375 466.539063 115.125 466.089844 125.15625 C 465.617188 135.703125 459.148438 144.769531 454.347656 152.5625 C 440.117188 175.648438 419.144531 200.480469 399.207031 214.554688 C 397.171875 221.101563 391.210938 240.242188 400.515625 241.960938 C 409.023438 243.527344 413.953125 233.949219 421.71875 233.148438 "/>
<path style=" stroke:none;fill-rule:evenodd;fill:rgb(96.499634%,92.498779%,15.299988%);fill-opacity:1;" d="M 365.605469 144.734375 C 365.140625 147.980469 362.09375 150.167969 360.058594 152.5625 C 353.796875 159.921875 347.628906 168.292969 342.765625 177.359375 C 348.628906 178.992188 356.050781 175.589844 360.710938 178.011719 C 358.6875 183.296875 351.746094 182.253906 344.394531 183.234375 C 342.003906 183.550781 338.617188 184.667969 335.589844 185.191406 C 333.179688 185.605469 328.046875 186.472656 327.433594 183.886719 C 326.867188 181.519531 332.480469 175.445313 333.628906 173.769531 C 340.3125 164.066406 346.75 154.328125 351.898438 143.753906 C 355.785156 142.269531 363.207031 140.984375 365.605469 144.734375 "/>
<path style=" stroke:none;fill-rule:evenodd;fill:rgb(96.499634%,92.498779%,15.299988%);fill-opacity:1;" d="M 321.558594 146.039063 C 318.390625 152.050781 313.171875 156.34375 309.160156 161.699219 C 305.214844 166.96875 301.9375 172.800781 298.394531 178.664063 C 304.085938 180.257813 311.730469 176.742188 316.339844 179.316406 C 314.527344 184.449219 306.429688 183.777344 300.351563 184.539063 C 294.367188 185.285156 287.113281 188.773438 283.058594 185.191406 C 286.722656 178.300781 291.414063 171.929688 295.785156 165.285156 C 300.101563 158.726563 304.054688 151.921875 307.855469 144.734375 C 312.058594 143.476563 319.175781 142.339844 321.558594 146.039063 "/>
<path style=" stroke:none;fill-rule:evenodd;fill:rgb(96.499634%,92.498779%,15.299988%);fill-opacity:1;" d="M 249.78125 174.746094 C 254.480469 173.140625 259.546875 171.894531 265.441406 171.484375 C 266.269531 166.222656 267.777344 161.640625 269.355469 157.128906 C 269.699219 157.113281 269.613281 156.710938 269.03125 156.804688 C 262.691406 162.863281 255.808594 168.378906 249.78125 174.746094 M 273.597656 146.039063 C 277.976563 146.226563 283.429688 145.339844 285.996094 147.34375 C 279.464844 157.230469 276.191406 170.382813 274.25 184.863281 C 271.5 186.316406 265.484375 186.835938 262.507813 185.1875 C 262.878906 182.082031 263.8125 179.535156 264.136719 176.382813 C 261 176.234375 257.738281 176.992188 254.347656 177.6875 C 251.546875 178.261719 247.796875 178.378906 244.5625 179.644531 C 241.335938 180.90625 237.734375 189.082031 233.796875 188.125 C 227.804688 186.671875 239.5 177.523438 241.300781 175.730469 C 248.558594 168.464844 254.476563 162.445313 261.851563 155.824219 C 266.101563 152.011719 270.765625 149.710938 273.597656 146.039063 "/>
<path style=" stroke:none;fill-rule:evenodd;fill:rgb(96.499634%,92.498779%,15.299988%);fill-opacity:1;" d="M 229.226563 156.476563 C 225.742188 154.949219 222.597656 158.382813 220.089844 160.394531 C 217.453125 162.507813 214.496094 164.71875 212.261719 166.917969 C 207.707031 171.398438 202.167969 177.335938 201.820313 184.210938 C 207.332031 187.132813 214.675781 184.84375 219.4375 182.582031 C 222.277344 181.230469 224.898438 177.851563 227.921875 179.644531 C 226.382813 183.933594 221.0625 186.035156 216.503906 187.800781 C 208.988281 190.710938 192.457031 192.996094 190.726563 183.886719 C 189.484375 177.332031 196.566406 168.09375 199.539063 164.636719 C 204.023438 159.414063 209.105469 154.226563 213.890625 151.257813 C 219.691406 147.664063 239.183594 144.859375 240.644531 153.542969 C 241.367188 157.816406 235.445313 166.226563 231.835938 167.898438 C 229.074219 169.175781 222.355469 169.101563 222.050781 165.941406 C 221.683594 162.175781 230.054688 160.445313 229.226563 156.476563 "/>
<path style=" stroke:none;fill-rule:evenodd;fill:rgb(92.89856%,10.998535%,23.899841%);fill-opacity:1;" d="M 66.75 249.789063 C 66.960938 251.054688 64.570313 252.195313 63.160156 253.703125 C 57.027344 260.28125 44.171875 276.910156 54.351563 288.613281 C 59.535156 294.570313 69.101563 296.726563 79.148438 296.117188 C 93.617188 295.242188 110.894531 287.628906 119.277344 281.109375 C 122.703125 278.445313 127.710938 272.625 128.085938 267.082031 C 128.996094 253.671875 115.796875 249.089844 104.921875 245.546875 C 87.277344 239.800781 60.882813 236.828125 54.679688 220.425781 C 52.121094 213.664063 54.644531 202.914063 57.289063 197.589844 C 63.027344 186.015625 75.273438 174.230469 86.324219 167.570313 C 98.980469 159.945313 115.777344 154.410156 132.003906 153.214844 C 145.140625 152.25 152.722656 161.316406 150.925781 174.746094 C 149.398438 186.160156 143.148438 196.300781 137.222656 205.417969 C 135.539063 208.003906 133.023438 213.394531 131.023438 213.898438 C 126.089844 215.148438 120.652344 210.011719 120.257813 205.417969 C 119.765625 199.746094 125.542969 190.558594 127.761719 185.84375 C 129.1875 182.8125 130.394531 179.515625 131.675781 176.382813 C 132.882813 173.421875 135.441406 169.210938 134.609375 165.9375 C 133.074219 159.875 120.820313 162.992188 116.015625 164.632813 C 98.988281 170.453125 82.25 182.015625 75.230469 196.933594 C 73.8125 199.953125 72.09375 205.285156 73.273438 209.984375 C 75.566406 219.105469 89.941406 222.203125 100.027344 224.664063 C 112.183594 227.632813 123.867188 229.683594 132.003906 234.128906 C 139.253906 238.089844 146.230469 245.484375 147.007813 256.316406 C 147.496094 263.125 144.515625 270.140625 141.464844 274.585938 C 129.492188 292.023438 102.394531 305.238281 71.644531 306.886719 C 61.660156 307.417969 49.976563 306.671875 42.28125 302.96875 C 34.839844 299.390625 28.203125 289.808594 28.25 280.132813 C 28.304688 269.351563 36.191406 260.496094 43.585938 255.988281 C 50.394531 251.839844 56.035156 250.902344 66.75 249.789063 "/>
<path style=" stroke:none;fill-rule:evenodd;fill:rgb(96.499634%,92.498779%,15.299988%);fill-opacity:1;" d="M 532.320313 181.925781 C 550.648438 183.671875 574.023438 184.234375 593.007813 181.601563 C 585.589844 185.144531 575.472656 190.878906 564.621094 191.714844 C 550.6875 192.785156 539.425781 189.144531 532.320313 181.925781 "/>
<path style=" stroke:none;fill-rule:evenodd;fill:rgb(96.499634%,92.498779%,15.299988%);fill-opacity:1;" d="M 416.175781 219.121094 C 435.578125 222.84375 461.757813 221.640625 484.363281 220.101563 C 507.164063 218.546875 530.457031 217.757813 544.71875 208.027344 C 529.472656 200.4375 502.992188 203.746094 483.058594 200.851563 C 484.382813 196.660156 491.566406 197.191406 496.433594 196.605469 C 505.269531 195.546875 518.050781 196.359375 529.058594 197.261719 C 539.039063 198.078125 554.222656 199.886719 552.875 209.660156 C 552.132813 215.066406 543.003906 218.054688 537.214844 220.101563 C 529.796875 222.71875 522.824219 223.539063 515.355469 224.339844 C 483.703125 227.738281 440.777344 229.621094 416.175781 219.121094 "/>
<path style=" stroke:none;fill-rule:evenodd;fill:rgb(96.499634%,92.498779%,15.299988%);fill-opacity:1;" d="M 573.105469 131.355469 C 575.824219 132.335938 578.539063 133.3125 581.585938 133.964844 C 580.476563 130.835938 580.832031 126.238281 578.976563 123.851563 C 577.355469 126.6875 574.769531 128.5625 573.105469 131.355469 M 423.675781 56.96875 C 424.703125 58.015625 425.710938 59.730469 426.9375 61.210938 C 428.019531 62.511719 429.550781 64.703125 430.53125 64.148438 C 429.519531 60.261719 429.164063 55.726563 427.917969 52.074219 C 426.746094 53.949219 424.578125 54.824219 423.675781 56.96875 M 436.074219 71.324219 C 436.839844 75.8125 437.992188 80.558594 439.011719 85.351563 C 439.945313 89.742188 441.925781 94.835938 440.316406 98.730469 C 437.203125 98.675781 437.277344 94.730469 436.726563 92.53125 C 434.9375 85.355469 432.980469 76.429688 431.507813 68.714844 C 427.890625 65.699219 424.644531 62.308594 421.71875 58.601563 C 408.382813 71.582031 396.3125 85.828125 382.242188 98.078125 C 394.117188 83.308594 407.574219 70.117188 419.761719 55.664063 C 414.382813 49.234375 411.464844 32.515625 424.003906 32.5 C 430.3125 32.492188 440.507813 39.050781 445.539063 41.636719 C 452.195313 45.054688 459.0625 49.085938 464.785156 52.726563 C 477.832031 61.035156 488.152344 70.390625 498.714844 79.480469 C 521.449219 99.046875 544.722656 115.910156 569.839844 130.050781 C 573.59375 126.296875 575.808594 121.007813 580.605469 118.304688 C 583.847656 122.132813 583.328125 129.722656 585.175781 134.945313 C 586.8125 135.0625 588.132813 134.859375 589.089844 134.292969 C 590.507813 122.277344 582.710938 115.234375 575.386719 109.824219 C 573.003906 108.058594 569.023438 106.699219 569.1875 102.972656 C 572.074219 100.105469 575.585938 103.714844 578.324219 105.90625 C 584.386719 110.765625 593.605469 120.132813 594.964844 128.417969 C 596.101563 135.335938 592.703125 141.046875 586.480469 141.144531 C 588.335938 150.503906 589.75 159.679688 591.703125 170.179688 C 592.078125 172.199219 594.425781 178.449219 591.703125 178.988281 C 588.976563 179.53125 588.933594 173.089844 588.4375 170.507813 C 586.628906 161.039063 584.4375 150.519531 582.890625 141.144531 C 577.789063 140.15625 572.9375 138.914063 568.863281 136.902344 C 556.453125 150.15625 546.191406 165.5625 533.628906 178.664063 C 535.46875 174.777344 538.4375 171.425781 541.128906 167.898438 C 549.097656 157.46875 557.726563 146.394531 565.601563 135.597656 C 544.644531 125.449219 524.511719 114.480469 507.523438 100.359375 C 498.773438 128.261719 489.570313 157.363281 481.101563 185.84375 C 478.269531 195.355469 476.425781 205.160156 471.636719 213.574219 C 470.023438 208.386719 472.492188 203.203125 473.597656 198.238281 C 481.40625 163.089844 489.464844 127.222656 496.757813 91.226563 C 478.480469 76.4375 459.023438 53.230469 434.441406 41.636719 C 430.808594 39.917969 423.746094 35.984375 420.414063 38.371094 C 416.085938 41.476563 419.640625 49.777344 421.394531 53.378906 C 424.511719 52.777344 425.769531 47.550781 429.550781 46.527344 C 431.417969 49.414063 431.621094 53.40625 432.484375 57.296875 C 433.28125 60.867188 433.824219 65.863281 435.097656 68.386719 C 436.734375 71.632813 440.65625 71.71875 443.253906 73.933594 C 441.199219 74.023438 438.113281 72.335938 436.074219 71.324219 "/>
<path style=" stroke:none;fill-rule:evenodd;fill:rgb(96.499634%,92.498779%,15.299988%);fill-opacity:1;" d="M 439.664063 102.320313 C 433.339844 106.023438 422.597656 111.914063 411.605469 112.757813 C 398.285156 113.785156 386.257813 109.707031 380.609375 102.644531 C 399.351563 104.828125 421.234375 105.222656 439.664063 102.320313 "/>
</g>
</svg>
