<?xml version="1.0" encoding="utf-8"?>
<!-- Generator: Adobe Illustrator 16.0.0, SVG Export Plug-In . SVG Version: 6.00 Build 0)  -->
<!DOCTYPE svg PUBLIC "-//W3C//DTD SVG 1.0//EN" "http://www.w3.org/TR/2001/REC-SVG-20010904/DTD/svg10.dtd">
<svg version="1.0" id="Layer_1" xmlns="http://www.w3.org/2000/svg" xmlns:xlink="http://www.w3.org/1999/xlink" x="0px" y="0px"
	 width="100%" height="100%" viewBox="0 200 800 400" xml:space="preserve">
<g>
	<g>
		<linearGradient id="SVGID_1_" gradientUnits="userSpaceOnUse" x1="26.8032" y1="178.2764" x2="248.5855" y2="400.0586">
			<stop  offset="0" style="stop-color:#0A443C"/>
			<stop  offset="1" style="stop-color:#007031"/>
		</linearGradient>
		<rect x="26.803" y="178.277" fill="url(#SVGID_1_)" width="221.783" height="221.781"/>
		<path fill="#002100" d="M25.274,401.584V176.748H250.11v223.31v1.526H25.274L25.274,401.584z M248.585,400.058v-1.524V400.058
			L248.585,400.058z M28.324,398.533h218.732V179.802H28.324V398.533L28.324,398.533z"/>
	</g>
	<g>
		<path fill="#FFFFFF" d="M60.734,228.971h58.013c20.258,0,36.528,10.213,36.528,30.649c0,13.507-7.438,22.335-20.949,24.928v0.349
			c16.97,1.731,26.489,15.759,26.489,30.476c0,30.821-21.985,36.885-47.612,36.885H60.734V228.971z M83.938,278.497h27.533
			c10.214,0,19.571-3.988,19.571-15.762c0-9.353-6.068-15.409-19.571-15.409H83.938V278.497z M83.938,331.832h30.13
			c14.027,0,22.509-4.337,22.509-17.149c0-13.856-8.657-18.875-22.684-18.875H83.938V331.832z"/>
		<path fill="#FFFFFF" d="M175.35,264.641h21.132v12.117h0.345c5.024-10.04,14.718-14.194,27.013-14.194v21.473
			c-14.376,0-27.358,6.751-27.358,25.794v42.429H175.35V264.641z"/>
	</g>
	<g>
		<path fill="#FFFFFF" d="M200.699,208.836h1.815c1.854,0,3.3-0.854,3.3-2.82c0-2.112-1.223-3.407-3.336-3.407
			c-2.558,0-3.375,2.224-3.558,4.336l-4.933-1.041c0.814-4.892,3.928-7.45,8.86-7.45c4.114,0,7.934,2.188,7.934,6.747
			c0,2.931-1.41,4.599-4.154,5.302v0.075c3.153,0.739,4.746,3.002,4.785,6.228c0,5.23-4.3,7.748-9.122,7.748
			c-4.932,0-8.749-2.295-8.749-8.673h4.746c0,2.705,1.37,4.523,4.15,4.523c2.375,0,3.784-1.597,3.784-3.892
			c0-2.82-1.779-3.745-3.708-3.745h-1.815V208.836z"/>
		<path fill="#FFFFFF" d="M216.647,198.9h14.086l-0.48,4.376h-9.75l-0.778,5.262c1.294-1.147,2.855-1.779,4.523-1.779
			c5.373,0,7.935,3.967,7.935,8.637c0,5.786-4.042,9.158-9.38,9.158c-4.71,0-8.566-2.335-8.789-7.415l5.19-0.405
			c0.036,2.113,1.41,3.892,3.634,3.892c3.038,0,4.154-2.558,4.154-5.191c0-3.335-1.707-4.745-4.229-4.745
			c-1.855,0-2.891,0.814-3.594,2.41l-4.301-0.333L216.647,198.9z"/>
	</g>
	<path fill="#094F3D" d="M287.329,306.875c-5.981,0-6.664,0.171-6.664,4.781c0,13.84,11.275,26.485,26.652,26.485
		c6.322,0,12.133-1.879,17.771-5.81c3.928-2.732,6.493-5.981,9.908-5.981c2.562,0,4.444,1.882,4.444,4.273
		c0,2.562-2.736,6.834-8.03,11.104c-9.4,7.688-18.113,11.62-29.9,11.62c-24.777,0-43.228-19.138-43.228-43.911
		c0-27.167,18.792-46.643,45.277-46.643c22.382,0,36.393,13.666,36.393,35.364c0,8.03-2.053,8.717-9.742,8.717h-41.687
		C288.012,306.875,287.671,306.875,287.329,306.875z M315.005,296.963c4.102,0,5.469-0.512,5.469-3.245
		c0-10.766-8.031-19.821-19.821-19.821c-11.445,0-19.134,9.055-19.134,19.821c0,2.732,1.196,3.245,5.294,3.245H315.005z"/>
	<path fill="#094F3D" d="M424.85,337.458c5.129,1.537,8.201,1.537,8.201,5.123c0,5.126-8.373,10.937-19.477,10.937
		c-6.496,0-10.938-9.055-12.646-9.055c-2.736,0-10.253,9.055-25.459,9.055c-16.914,0-28.363-10.763-28.363-26.655
		c0-18.28,13.669-29.559,38.276-29.559c4.44,0,9.908,0.512,16.232,1.537v-9.226c0-10.25-4.616-15.889-12.816-15.889
		c-5.811,0-10.592,2.561-15.036,7.688c-3.589,4.102-5.81,8.883-12.986,8.883c-4.615,0-7.518-3.245-7.518-8.201
		c0-9.908,13.156-19.304,36.052-19.304c13.158,0,22.382,3.586,27.339,9.909c4.441,5.639,4.785,14.181,4.785,26.484v28.018
		C421.434,333.186,422.285,336.775,424.85,337.458z M388.967,308.412c-12.645,0-19.821,5.981-19.821,15.719
		c0,9.055,6.323,15.206,16.748,15.206c11.787,0,15.72-4.956,15.72-16.572v-12.816C396.998,308.924,392.728,308.412,388.967,308.412z
		"/>
	<path fill="#094F3D" d="M467.645,292.694c0,3.586,0.168,5.293,1.707,5.293c0.854,0,4.443-2.22,9.912-7.176
		c7.004-6.493,10.934-10.421,10.934-12.47c0-2.224-6.494-2.053-6.494-6.834c0-5.81,7.006-7.005,21.529-7.005
		c10.594,0,15.887,2.049,15.887,6.493c0,6.664-8.201,4.61-15.377,8.883c-3.414,2.05-7.176,5.981-11.955,10.763
		c-2.396,2.395-3.762,3.932-3.762,4.957c0,1.708,3.074,5.639,8.541,12.815c12.133,15.719,20.334,24.773,24.436,27.851
		c5.809,4.099,13.326,2.732,13.326,8.543c0,5.123-5.465,7.005-17.428,7.005c-4.957,0-8.201-0.512-9.227-0.854
		c-4.785-1.712-8.711-7.86-15.717-16.748c-15.037-19.134-22.9-29.217-24.605-29.217c-1.539,0-1.707,1.37-1.707,4.614
		c0,1.025,0,2.22,0,3.757c0,14.353,0.338,22.558,2.389,24.948c2.396,2.732,8.887,1.878,8.887,7.347c0,4.956-6.32,6.152-19.988,6.152
		c-15.207,0-21.703-0.854-21.703-6.664c0-3.932,3.59-3.932,6.496-5.469c3.586-2.049,4.27-8.201,4.27-19.821
		c0-6.493-0.174-14.352-0.174-24.26c0-3.757,0-7.347,0-10.763c0-25.46-0.17-35.234-2.391-37.795
		c-1.363-1.537-4.271-1.878-7.857-3.078c-2.734-0.854-3.932-1.537-3.932-4.099c0-3.589,3.25-4.955,9.57-7.175
		c9.91-3.419,17.426-4.444,20.672-4.444c3.762,0,4.785,2.224,4.785,7.348c0,9.053-1.023,18.143-1.023,35.232V292.694z"/>
	<path fill="#094F3D" d="M571.021,323.277c0,9.225,0.514,14.523,3.416,16.06c3.93,2.22,7.689,1.708,7.689,6.322
		c0,4.956-6.154,6.152-19.822,6.152c-15.205,0-21.867-0.854-21.867-6.664c0-3.932,3.592-3.932,6.49-5.469
		c3.42-1.878,4.104-6.151,4.104-13.669c0-3.586-0.174-7.688-0.174-12.816c0-3.245,0-6.318,0-9.054
		c0-14.011-0.168-21.358-3.074-22.895c-4.27-2.22-9.395-1.879-9.395-6.152c0-2.732,2.391-4.61,7.004-6.493
		c11.789-4.611,20.672-5.806,22.381-5.806c3.418,0,4.443,2.391,4.443,7.347c0,2.22,0,5.294-0.172,9.055l-0.68,22.211
		C571.191,308.924,571.021,316.271,571.021,323.277z M559.744,230.961c7.857,0,13.158,4.956,13.158,11.106
		c0,6.152-5.813,11.445-14.182,11.445c-7.689,0-12.986-4.61-12.986-10.592C545.734,236.6,551.713,230.961,559.744,230.961z"/>
	<path fill="#094F3D" d="M645.904,262.794c8.885,0,16.914,4.269,21.871,10.079c6.834,8.201,7.346,18.28,7.346,31.949
		c0,6.493,0,10.425,0,11.791c0,4.099-0.17,7.518-0.17,10.592c0,6.834,0.512,10.596,3.932,12.474
		c2.902,1.537,6.492,1.537,6.492,5.469c0,5.811-6.492,6.493-21.357,6.493c-14.012,0-20.504-0.854-20.504-5.981
		c0-4.614,3.758-4.102,7.689-6.322c3.072-1.708,3.586-7.518,3.586-18.109c0-27.51-0.342-41.691-16.23-41.691
		c-6.152,0-12.305,3.928-15.377,10.25c-3.244,6.493-3.416,17.943-3.416,34.515c0,8.543,0.172,13.328,3.244,15.036
		c3.932,2.22,7.689,1.708,7.689,6.322c0,4.956-6.152,6.152-19.822,6.152c-15.205,0-21.869-0.854-21.869-6.664
		c0-3.932,3.59-3.932,6.492-5.469c3.42-1.878,4.104-6.151,4.104-13.669c0-3.586-0.172-7.688-0.172-12.816c0-3.245,0-6.318,0-9.054
		c0-14.011-0.172-21.358-3.078-22.895c-4.268-2.22-9.395-1.879-9.395-6.152c0-2.732,2.389-4.61,7.004-6.493
		c11.107-4.269,19.311-5.464,21.529-5.464c3.244,0,4.613,1.537,4.613,5.464v4.786c0,0.512,0,0.854,0,1.024
		c0,0.683,0,1.025,0.686,1.025c0.34,0,0.682-0.171,0.854-0.342l2.049-1.878C628.818,268.6,633.43,262.794,645.904,262.794z"/>
	<path fill="#094F3D" d="M692.031,295.768c0-18.796,15.719-32.974,37.76-32.974c5.98,0,13.498,1.366,22.553,3.415
		c4.615,0,9.566-2.391,16.23-7.005c2.391,1.537,3.762,3.59,3.762,5.639c0,4.782-3.592,9.567-10.596,13.157
		c2.391,4.61,3.59,9.054,3.59,14.182c0,18.792-15.035,32.462-38.275,32.462c-6.318,0-12.129-0.854-17.428-2.732
		c-2.389,2.561-3.584,4.781-3.584,6.834c0,5.636,5.635,8.03,16.912,8.03c8.713,0,17.598-1.882,26.828-1.882
		c16.23,0,24.943,6.834,24.943,18.967c0,17.772-19.139,32.295-48.186,32.295c-23.576,0-38.613-11.274-38.613-23.069
		c0-6.322,4.104-10.591,12.305-15.547c-6.836-2.391-10.596-7.005-10.596-12.816c0-5.977,4.273-11.616,12.645-16.743
		C695.445,312.169,692.031,304.651,692.031,295.768z M706.725,361.377c0,7.688,8.371,13.503,23.066,13.503
		c16.4,0,26.992-7.351,26.992-15.552c0-5.469-3.928-8.713-11.445-8.713c-5.297,0-13.156,1.708-23.236,1.708
		c-3.42,0-7.006-0.171-10.938-0.683C708.092,354.543,706.725,357.621,706.725,361.377z M728.254,313.364
		c9.738,0,17.084-7.859,17.084-19.646c0-12.132-7.176-19.991-16.914-19.991c-8.889,0-16.063,8.03-16.063,19.82
		C712.361,305.676,719.025,313.364,728.254,313.364z"/>
	<g>
		<path fill="#094F3D" d="M545.088,564.786c0-1.536-0.342-2.22-0.686-2.22c-0.516,0-2.563,1.879-6.49,4.782
			c-6.662,4.955-13.156,7.518-20.504,7.518c-21.189,0-36.734-16.573-36.734-42.199c0-28.365,17.426-47.84,42.029-47.84
			c11.961,0,19.309,5.128,20.674,5.128c1.025,0,1.193-1.537,1.193-4.272v-6.184c0-7.861-1.023-10.427-5.463-11.962
			c-4.102-1.366-7.689-1.366-7.689-5.3c0-3.757,3.588-5.464,10.764-8.028c7.516-2.734,13.496-3.759,17.768-3.759
			c3.93,0,5.465,2.049,5.465,7.177c0,2.905-1.025,18.147-1.025,54.023c0,29.217,0.172,44.082,2.566,45.789
			c3.756,2.731,10.59,1.024,10.59,6.151c0,4.1-4.613,5.469-13.496,8.372c-5.982,2.05-12.131,2.731-14.352,2.731
			c-3.244,0-4.609-1.707-4.609-5.635V564.786z M544.23,515.578c0-4.781,0-8.032-1.709-10.252
			c-3.586-4.783-10.932-8.709-18.451-8.709c-12.475,0-21.186,10.758-21.186,29.557c0,20.329,9.906,32.973,22.381,32.973
			c12.131,0,18.965-6.662,18.965-19.815V515.578z"/>
	</g>
	<g>
		<linearGradient id="SVGID_2_" gradientUnits="userSpaceOnUse" x1="470.4023" y1="621.7334" x2="248.6153" y2="399.9463">
			<stop  offset="0" style="stop-color:#0A443C"/>
			<stop  offset="1" style="stop-color:#007031"/>
		</linearGradient>
		<rect x="248.613" y="399.947" fill="url(#SVGID_2_)" width="221.792" height="221.783"/>
		<path fill="#002100" d="M247.084,623.252v-224.83H471.93V621.73v1.521H247.084L247.084,623.252z M470.404,621.73v-1.524V621.73
			L470.404,621.73z M250.134,620.206h218.745l-0.006-218.734H250.134V620.206L250.134,620.206z"/>
	</g>
	<g>
		<path fill="#FFFFFF" d="M265.209,450.645h58.001c20.261,0,36.536,10.219,36.536,30.649c0,13.504-7.447,22.326-20.957,24.928v0.347
			c16.973,1.729,26.497,15.754,26.497,30.467c0,30.825-21.989,36.893-47.62,36.893h-52.457V450.645z M288.41,500.164h27.529
			c10.21,0,19.567-3.983,19.567-15.753c0-9.349-6.064-15.415-19.567-15.415H288.41V500.164z M288.41,553.491h30.118
			c14.031,0,22.522-4.328,22.522-17.143c0-13.85-8.662-18.868-22.688-18.868H288.41V553.491z"/>
		<path fill="#FFFFFF" d="M453.068,559.207c0,9.003,2.078,12.815,3.283,14.721H434.02c-1.381-2.08-2.076-5.718-2.076-7.97
			c-8.135,6.581-17.666,10.04-28.578,10.04c-16.618,0-29.779-10.56-29.779-27.521c0-17.148,13.677-24.773,26.667-27.37l8.829-1.724
			c7.619-1.558,17.494-3.292,22.861-5.195v-2.596c0-8.658-7.445-11.081-16.625-11.081c-12.291,0-16.28,3.634-16.28,13.161
			l-21.124-0.869c0-20.603,18.181-28.558,37.403-28.558c18.883,0,37.75,3.808,37.75,28.731V559.207z M431.943,530.117
			c-2.764,1.386-6.234,2.427-10.047,3.112l-11.604,2.431c-7.961,1.558-14.539,3.805-14.539,12.117
			c0,6.585,6.055,10.913,13.678,10.913c9.869,0,22.512-4.849,22.512-16.099V530.117z"/>
	</g>
	<g>
		<path fill="#FFFFFF" d="M417.105,419.111h14.09l-0.484,4.374h-9.75l-0.777,5.266c1.295-1.151,2.854-1.781,4.523-1.781
			c5.377,0,7.932,3.968,7.932,8.643c0,5.779-4.043,9.155-9.381,9.155c-4.709,0-8.564-2.339-8.785-7.416l5.189-0.407
			c0.035,2.112,1.41,3.892,3.633,3.892c3.041,0,4.156-2.556,4.156-5.19c0-3.336-1.711-4.746-4.23-4.746
			c-1.852,0-2.893,0.816-3.594,2.411l-4.301-0.332L417.105,419.111z"/>
		<path fill="#FFFFFF" d="M447.844,425.711c-0.145-1.779-1.293-2.892-2.998-2.892c-3.602,0-4.416,4.705-4.416,7.671h0.078
			c0.627-0.925,2.074-2.333,4.93-2.333c4.709,0,7.453,3.374,7.453,8.305c0,4.674-3.412,8.306-8.418,8.306
			c-7.34,0-9.008-6.563-9.008-12.423c0-7.97,3.111-13.681,9.414-13.681c4.23,0,7.047,2.19,7.752,6.414L447.844,425.711z
			 M440.803,436.462c0,2.595,1.297,4.151,3.67,4.151c2.371,0,3.67-1.557,3.67-4.151c0-2.596-1.299-4.152-3.67-4.152
			C442.1,432.31,440.803,433.866,440.803,436.462z"/>
	</g>
</g>
</svg>
